<?xml version="1.0" encoding="iso-8859-1"?>
<!DOCTYPE svg PUBLIC "-//W3C//DTD SVG 1.1//EN" "http://www.w3.org/Graphics/SVG/1.1/DTD/svg11.dtd">
<svg 
 version="1.1" xmlns="http://www.w3.org/2000/svg" xmlns:xlink="http://www.w3.org/1999/xlink" x="0px" y="0px" width="512px"
	 height="512px" viewBox="0 0 512 512" style="enable-background:new 0 0 512 512;" xml:space="preserve"
><g id="afcae5a789ccd549f9c6e2a2f817b160"><g></g><path style="display: inline; fill:#8d8d8d;" d="M226.102,406.896H205.74V101.436h20.361V406.896z M389.013,101.436h-20.361v305.461
		h20.361V101.436z M307.558,101.436h-20.362v305.461h20.362V101.436z M489.259,0.5v44.434v266.608v155.521
		c0,24.55-19.871,44.438-44.434,44.438H156c-24.513,0-44.434-19.888-44.434-44.438v-88.871H67.175
		c-44.434,0-44.434-44.433-44.434-44.433V133.8c0-44.434,44.434-44.434,44.434-44.434h22.217h22.175V0.5H156h288.825H489.259z
		 M111.566,333.759v-22.217V133.8H89.392H68.11c-0.282,0.042-0.586,0.087-0.936,0.174v198.827c0.024,0.316,0.112,0.599,0.133,0.957
		H111.566z M444.825,44.934H156v44.433h0.046v288.825H156v44.434c0,24.554,19.921,44.438,44.438,44.438h199.95
		c24.566,0,44.438-19.884,44.438-44.438V289.366v-133.35V44.934z"></path></g></svg>